<svg width="311" height="514" viewBox="0 0 311 514" fill="none" xmlns="http://www.w3.org/2000/svg">
<path d="M54.5986 21C77.6215 52.552 89.1035 95.0685 100.788 134.958C112.338 174.389 119.732 219.815 111.761 261.708C106.432 289.72 91.7504 327.783 68.3788 334.967C36.6834 344.71 21.5917 283.979 18.1064 254.233C15.6742 233.474 13.2841 209.299 16.7029 188.449C19.2213 173.09 29.6043 166.044 40.1803 161.538C62.1575 152.174 88.883 153.014 110.485 163.365C138.606 176.84 164.396 194.544 179.769 228.816C202.628 279.777 217.846 339.73 224.81 397.761C227.949 423.915 228 450.555 228 477" stroke="#0656D6" stroke-width="30" stroke-linecap="square"/>
<path d="M159.296 381.973C164.901 388.7 169.404 396.795 174.553 403.901C188.823 423.598 202.509 443.668 214.379 464.929C220.25 475.443 225.354 486.374 231.089 496.962C232.545 499.649 232.435 499.272 233.269 497.292C238.408 485.087 241.892 472.063 246.875 459.645C259.723 427.622 272.933 395.319 290.07 365.329" stroke="#0656D6" stroke-width="30" stroke-linecap="square"/>
</svg>
