<svg width="213" height="200" viewBox="0 0 213 200" fill="none" xmlns="http://www.w3.org/2000/svg">
<path d="M122.312 41.6875C122.312 40.2708 122.438 39.0208 122.688 37.9375C122.938 36.8125 123.417 35.8958 124.125 35.1875C124.833 34.4792 125.812 33.9375 127.062 33.5625C128.312 33.1875 129.938 33 131.938 33H157.5C159.375 33 160.979 33.1875 162.312 33.5625C163.688 33.9375 164.667 34.5833 165.25 35.5C165.792 35.125 166.438 34.7292 167.188 34.3125C167.979 33.8542 168.833 33.4375 169.75 33.0625C170.667 32.6875 171.646 32.375 172.688 32.125C173.729 31.875 174.812 31.75 175.938 31.75C179.938 31.75 183.042 33.125 185.25 35.875C187.5 38.625 188.625 42.6667 188.625 48V94.0625C188.625 94.7708 188.521 95.3333 188.312 95.75C188.146 96.125 187.917 96.4167 187.625 96.625C187.375 96.7917 187.062 96.8958 186.688 96.9375C186.312 96.9792 185.938 97 185.562 97H181.562C180.479 97 179.771 96.6875 179.438 96.0625C179.146 95.4375 179 94.7708 179 94.0625V47.375C179 45 178.562 43.1875 177.688 41.9375C176.854 40.6875 175.5 40.0625 173.625 40.0625C172.667 40.0625 171.688 40.3333 170.688 40.875C169.729 41.375 168.958 41.9167 168.375 42.5V88.25C168.375 89.7083 168.25 90.9792 168 92.0625C167.75 93.1458 167.271 94.0625 166.562 94.8125C165.854 95.5208 164.875 96.0625 163.625 96.4375C162.375 96.8125 160.75 97 158.75 97H131.938C129.938 97 128.312 96.8125 127.062 96.4375C125.812 96.0625 124.833 95.5208 124.125 94.8125C123.417 94.1042 122.938 93.2083 122.688 92.125C122.438 91.0417 122.312 89.7708 122.312 88.3125V41.6875Z" fill="#0656D6"/>
<path d="M147.062 181C144.812 181 142.542 180.854 140.25 180.562C138 180.271 135.833 179.812 133.75 179.188C131.708 178.521 129.792 177.667 128 176.625C126.208 175.583 124.646 174.292 123.312 172.75C122.021 171.208 121 169.396 120.25 167.312C119.5 165.229 119.125 162.833 119.125 160.125C119.125 156.5 119.812 153.396 121.188 150.812C122.562 148.229 124.396 146.083 126.688 144.375C129.021 142.667 131.688 141.354 134.688 140.438C137.688 139.521 140.792 138.938 144 138.688V134.375C144 132.75 143.792 131.458 143.375 130.5C142.958 129.542 142.417 128.833 141.75 128.375C141.125 127.875 140.417 127.562 139.625 127.438C138.875 127.271 138.146 127.188 137.438 127.188C136.604 127.188 135.708 127.312 134.75 127.562C133.833 127.812 132.938 128.125 132.062 128.5C131.188 128.833 130.354 129.208 129.562 129.625C128.771 130.042 128.104 130.417 127.562 130.75C127.312 130.917 127.083 131.062 126.875 131.188C126.667 131.312 126.458 131.375 126.25 131.375C125.875 131.375 125.521 131.104 125.188 130.562L123.062 127.188C122.854 126.896 122.75 126.583 122.75 126.25C122.75 125.917 122.875 125.625 123.125 125.375C123.417 125.125 123.688 124.917 123.938 124.75C125.312 123.792 127.062 122.812 129.188 121.812C131.312 120.812 133.688 119.917 136.312 119.125C138.979 118.333 141.854 117.688 144.938 117.188C148.021 116.688 151.208 116.438 154.5 116.438C157.625 116.438 160.667 116.542 163.625 116.75C166.625 116.958 169.438 117.417 172.062 118.125C174.729 118.792 177.146 119.771 179.312 121.062C181.521 122.312 183.417 123.979 185 126.062C186.625 128.146 187.875 130.708 188.75 133.75C189.625 136.792 190.062 140.438 190.062 144.688V172.562C190.062 173.938 189.938 175.167 189.688 176.25C189.438 177.292 188.958 178.167 188.25 178.875C187.542 179.583 186.562 180.125 185.312 180.5C184.062 180.833 182.438 181 180.438 181H147.062ZM144 146.625C141 146.625 138.479 147 136.438 147.75C134.396 148.5 132.75 149.5 131.5 150.75C130.25 152 129.354 153.458 128.812 155.125C128.271 156.75 128 158.438 128 160.188C128 161.938 128.271 163.604 128.812 165.188C129.354 166.729 130.25 168.083 131.5 169.25C132.75 170.417 134.396 171.333 136.438 172C138.479 172.667 141 173 144 173V146.625Z" fill="#0656D6"/>
<path d="M41.8688 177.848C40.4522 177.836 39.2033 177.701 38.1222 177.442C36.9993 177.182 36.0868 176.695 35.3845 175.981C34.6822 175.266 34.1489 174.283 33.7845 173.029C33.4202 171.776 33.2465 170.15 33.2635 168.15L33.4809 142.588C33.4968 140.713 33.698 139.111 34.0843 137.781C34.471 136.409 35.1251 135.435 36.0467 134.86C35.6763 134.315 35.286 133.666 34.8757 132.912C34.4242 132.117 34.0148 131.259 33.6476 130.339C33.2804 129.419 32.9762 128.438 32.7351 127.394C32.494 126.35 32.3782 125.266 32.3877 124.141C32.4218 120.141 33.8231 117.049 36.5918 114.864C39.3608 112.637 43.4119 111.547 48.7451 111.592L94.8059 111.984C95.5142 111.99 96.0758 112.099 96.4907 112.311C96.8642 112.48 97.154 112.712 97.3598 113.006C97.5243 113.257 97.6258 113.57 97.6643 113.946C97.7028 114.321 97.7204 114.696 97.7172 115.071L97.6832 119.071C97.674 120.154 97.3555 120.86 96.7277 121.188C96.1002 121.474 95.4323 121.614 94.724 121.608L48.0382 121.211C45.6633 121.191 43.8472 121.613 42.5898 122.478C41.3327 123.3 40.6962 124.649 40.6803 126.524C40.6721 127.482 40.9346 128.464 41.4678 129.468C41.9596 130.431 42.4947 131.206 43.073 131.795L88.8214 132.184C90.2797 132.196 91.5494 132.332 92.6306 132.591C93.7117 132.85 94.6243 133.337 95.3682 134.052C96.0705 134.766 96.6038 135.75 96.9682 137.003C97.3326 138.256 97.5062 139.883 97.4892 141.883L97.2612 168.694C97.2442 170.694 97.0429 172.317 96.6573 173.564C96.2716 174.811 95.7217 175.786 95.0073 176.488C94.293 177.19 93.3931 177.662 92.3077 177.902C91.2223 178.143 89.9504 178.257 88.4922 178.245L41.8688 177.848ZM98.0638 74.3226C98.0447 76.5725 97.8795 78.842 97.5684 81.1311C97.2576 83.3786 96.7808 85.5413 96.1382 87.6192C95.4541 89.6551 94.5837 91.5645 93.5268 93.3472C92.47 95.1299 91.1651 96.6814 89.6121 98.0016C88.0595 99.2801 86.2384 100.285 84.1488 101.018C82.0591 101.75 79.6602 102.105 76.952 102.082C73.3271 102.051 70.2289 101.337 67.6573 99.9399C65.0858 98.543 62.9556 96.6915 61.2668 94.3854C59.5784 92.0376 58.2886 89.3599 57.3975 86.3522C56.5064 83.3445 55.9495 80.2355 55.7268 77.0251L51.4144 76.9885C49.7895 76.9746 48.4961 77.172 47.5343 77.5805C46.5724 77.989 45.8595 78.5246 45.3955 79.1874C44.8902 79.8081 44.5717 80.5137 44.44 81.3043C44.2669 82.0529 44.1774 82.7813 44.1714 83.4896C44.1643 84.3229 44.2817 85.2198 44.5235 86.1802C44.7657 87.0989 45.0706 87.9974 45.4381 88.8756C45.764 89.7534 46.1319 90.5899 46.5418 91.385C46.9518 92.1802 47.3211 92.8501 47.6498 93.3945C47.8143 93.6459 47.9582 93.8763 48.0814 94.0857C48.2046 94.2951 48.2654 94.504 48.2636 94.7123C48.2604 95.0873 47.9866 95.4391 47.4421 95.7679L44.0491 97.8641C43.7557 98.0699 43.4423 98.1714 43.109 98.1686C42.7757 98.1658 42.4851 98.0383 42.2372 97.7862C41.9897 97.4924 41.7837 97.2198 41.6192 96.9684C40.6726 95.5853 39.7083 93.827 38.7264 91.6936C37.7445 89.5602 36.8689 87.1776 36.0996 84.546C35.3307 81.8727 34.7093 78.9923 34.2355 75.9048C33.7618 72.8173 33.5389 69.6278 33.5669 66.3363C33.5935 63.2114 33.7235 60.1707 33.957 57.2143C34.1908 54.2162 34.6731 51.4077 35.4037 48.7888C36.093 46.1279 37.0927 43.7196 38.4027 41.564C39.6715 39.3664 41.3542 37.4848 43.4509 35.9193C45.548 34.312 48.121 33.0839 51.17 32.2348C54.219 31.3857 57.8685 30.9792 62.1183 31.0153L89.9923 31.2524C91.3672 31.2641 92.5953 31.3995 93.6765 31.6587C94.716 31.9176 95.5869 32.4042 96.2892 33.1185C96.9914 33.8328 97.5248 34.8166 97.8891 36.0697C98.2118 37.3225 98.3646 38.9489 98.3476 40.9488L98.0638 74.3226ZM63.664 77.0926C63.6385 80.0925 63.992 82.6165 64.7246 84.6644C65.4573 86.7124 66.4432 88.3667 67.6825 89.6273C68.9219 90.8879 70.3725 91.7961 72.0345 92.3519C73.6549 92.9073 75.34 93.1925 77.0899 93.2074C78.8399 93.2223 80.5088 92.9656 82.0967 92.4375C83.6429 91.9089 85.0046 91.0246 86.1819 89.7846C87.3591 88.5446 88.2898 86.9066 88.9738 84.8707C89.6578 82.8347 90.0125 80.3168 90.038 77.3169L63.664 77.0926Z" fill="#0656D6"/>
</svg>
